<?xml version="1.0" encoding="UTF-8" standalone="no"?>
<svg width="120px" height="120px" viewBox="0 0 120 120" version="1.1" xmlns="http://www.w3.org/2000/svg" xmlns:xlink="http://www.w3.org/1999/xlink" xmlns:sketch="http://www.bohemiancoding.com/sketch/ns">
    <!-- Generator: Sketch 3.2.2 (9983) - http://www.bohemiancoding.com/sketch -->
    <title>Oval 7</title>
    <desc>Created with Sketch.</desc>
    <defs></defs>
    <g id="Forms" stroke="none" stroke-width="1" fill="none" fill-rule="evenodd" sketch:type="MSPage">
        <g id="Credit-Splash" sketch:type="MSArtboardGroup" transform="translate(-290.000000, -41.000000)" fill="#9B70FD">
            <path d="M350,161 C383.137085,161 410,134.137085 410,101 C410,67.862915 383.137085,41 350,41 C316.862915,41 290,67.862915 290,101 C290,134.137085 316.862915,161 350,161 Z M366.679426,108.71755 C366.473315,110.884957 365.958046,112.88522 365.133603,114.718401 C364.30916,116.551581 363.165263,118.1366 361.701877,119.473505 C360.238491,120.81041 358.450507,121.853586 356.337873,122.603063 C354.225238,123.35254 351.788015,123.727273 349.026132,123.727273 C346.264248,123.727273 343.765193,123.236069 341.528892,122.253646 C339.292591,121.271223 337.386095,119.873571 335.809349,118.060647 C334.232602,116.247722 333.021719,114.055028 332.176665,111.482499 C331.331612,108.909969 330.909091,106.023513 330.909091,102.823043 L330.909091,99.2377248 C330.909091,96.0575112 331.341917,93.1761189 332.207582,90.5934614 C333.073247,88.0108038 334.309893,85.8079819 335.917556,83.9849295 C337.52522,82.1618771 339.467784,80.7540967 341.745307,79.7615459 C344.022831,78.7689952 346.573412,78.2727273 349.397129,78.2727273 C352.076568,78.2727273 354.446806,78.6525242 356.507913,79.4121293 C358.56902,80.1717345 360.315782,81.2250378 361.748252,82.572071 C363.180721,83.9191041 364.304008,85.5243789 365.118145,87.3879436 C365.932282,89.2515083 366.452704,91.2872196 366.679426,93.4951386 L358.88848,93.4951386 C358.723591,92.0974651 358.440193,90.8416034 358.038278,89.7275158 C357.636362,88.6134282 357.064413,87.666468 356.322414,86.8866067 C355.580416,86.1067454 354.642626,85.5142623 353.509017,85.1091395 C352.375408,84.7040168 351.004793,84.5014584 349.397129,84.5014584 C347.624577,84.5014584 346.073617,84.8306157 344.744203,85.4889402 C343.414789,86.1472647 342.306961,87.0992889 341.420685,88.3450413 C340.534409,89.5907938 339.869711,91.1251732 339.426573,92.9482256 C338.983435,94.771278 338.76187,96.8475009 338.76187,99.1769567 L338.76187,102.823043 C338.76187,105.030962 338.957672,107.03629 339.349282,108.839086 C339.740893,110.641882 340.34891,112.18639 341.173353,113.472654 C341.997796,114.758919 343.05925,115.756519 344.357748,116.465484 C345.656245,117.174449 347.212358,117.528926 349.026132,117.528926 C350.71624,117.528926 352.143535,117.336495 353.30806,116.951629 C354.472586,116.566762 355.436139,115.999599 356.198749,115.250122 C356.961358,114.500644 357.553918,113.579004 357.976445,112.485173 C358.398972,111.391341 358.70298,110.135479 358.88848,108.71755 L366.679426,108.71755 Z" id="Oval-7" sketch:type="MSShapeGroup"></path>
        </g>
    </g>
</svg>