<?xml version="1.0" encoding="utf-8"?>
<!-- Generator: Adobe Illustrator 18.1.0, SVG Export Plug-In . SVG Version: 6.00 Build 0)  -->
<svg version="1.1" id="Layer_1" xmlns="http://www.w3.org/2000/svg" xmlns:xlink="http://www.w3.org/1999/xlink" x="0px" y="0px"
	 viewBox="0 0 79.8 71.9" enable-background="new 0 0 79.8 71.9" xml:space="preserve">
<symbol  id="bblogo" viewBox="-39.9 -36 79.8 71.9">
	<g>
		<path fill="#F4F4F4" d="M-21.1-34.5c-6.9,0-12.1,5.1-12.1,11.9c0,12.6-0.1,36.7-0.1,37.4c0,0.5-0.2,1-0.7,1.3
			c-2,1.3-4.4,3.3-4.4,5.6c0,7.5,20.2,12.8,38.4,12.8c18.2,0,38.4-5.2,38.4-12.8c0-1.9-1.7-4.1-4.4-5.9c-0.5-0.3-0.7-0.8-0.7-1.4
			c0-0.6-0.1-24.5-0.1-37.1c0-6.8-5.2-11.9-12.1-11.9H-21.1z"/>
		<path fill="#754C24" d="M0,33c22.5,0,36.9-6.7,36.9-11.3c0-1.3-1.5-3.1-3.7-4.6c-0.9-0.6-1.4-1.6-1.4-2.6c0-1.1-0.1-27.1-0.1-37.1
			c0-6-4.5-10.4-10.6-10.4h-42.1c-6.2,0-10.6,4.4-10.6,10.4c0,10-0.1,36.2-0.1,37.3c0,1-0.5,2-1.4,2.6c-2.4,1.5-3.7,3.1-3.7,4.4
			C-36.9,26.3-22.5,33,0,33 M0,36c-22,0-39.9-6.4-39.9-14.3c0-2.5,2-4.8,5.1-6.9c0-0.3,0.1-37.4,0.1-37.4c0-7.7,5.9-13.4,13.6-13.4
			h42.1c7.7,0,13.6,5.7,13.6,13.4c0,0,0.1,36.9,0.1,37.2c3.2,2,5.1,4.6,5.1,7.1C39.9,29.6,22,36,0,36L0,36z"/>
	</g>
	<path fill="#F7931E" d="M17.3-7.8c0,1-0.1,2-0.4,3c-0.3,1-0.7,1.9-1.2,2.8c-0.6,0.9-1.3,1.6-2.2,2.3c-0.9,0.7-2,1.2-3.4,1.5
		c1.1,0.4,2.1,1,2.9,1.6s1.4,1.4,1.9,2.3c0.5,0.8,0.9,1.7,1.1,2.7c0.2,0.9,0.3,1.9,0.3,3c0,2.1-0.4,3.9-1.2,5.4
		c-0.8,1.5-1.9,2.8-3.5,3.8c-1.5,1-3.4,1.7-5.5,2.2c-2.2,0.5-4.6,0.6-7.4,0.6h-7.6c-4.7,0-8.5-3.5-8.5-8.2v-27.7c0-2.1,0.8-4,2-5.4
		v-11.7c0-0.8,0.7-1.5,1.5-1.5s1.5,0.7,1.5,1.5v9.4c0.6-0.3,1.3-0.5,2-0.6v-4.8c0-0.8,0.7-1.5,1.5-1.5s1.5,0.7,1.5,1.5v5h7.8
		c3.2,0,5.9,0,8.2,0.8v-2.8c0-0.8,0.7-1.5,1.5-1.5s1.5,0.7,1.5,1.5v4.1c0.5,0.3,0.9,0.6,1.3,0.9c0.2,0.2,0.4,0.4,0.7,0.6v-6.5
		c0-0.8,0.7-1.5,1.5-1.5s1.5,0.7,1.5,1.5v11.5C17.1-10.9,17.3-9.4,17.3-7.8z M-6.3,15.3h2v-4c0-0.6,0.4-1,1-1s1,0.4,1,1v4h1
		c2.4,0,4.2-0.4,5.2-1.3s1.6-2.2,1.6-4.1c0-1.6-0.5-2.7-1.5-3.5c-1-0.8-2.7-1.1-5-1.1h-5.4V15.3z M6.2-9.7c-0.2-0.6-0.6-1.1-1.1-1.6
		s-1.1-0.8-1.9-1.1c-0.8-0.3-1.7-0.4-2.8-0.4h-6.8v11h7v-5c0-0.8,0.7-1.5,1.5-1.5s1.5,0.7,1.5,1.5v4.1c0.6-0.3,1.2-0.6,1.6-1
		c0.4-0.5,0.8-1.1,1-1.8c0.2-0.7,0.3-1.5,0.3-2.3C6.6-8.4,6.4-9.1,6.2-9.7z"/>
	<path fill="#F9C33E" stroke="#F7931E" stroke-miterlimit="10" d="M17-5.8c0,1,0,2-0.3,3c-0.3,1-0.6,1.9-1.2,2.8
		c-0.6,0.9-1.3,1.6-2.2,2.3c-0.9,0.7-2,1.2-3.4,1.5c1.1,0.4,2.1,1,2.9,1.6s1.4,1.4,1.9,2.3c0.5,0.8,0.9,1.7,1.1,2.7
		c0.2,0.9,0.3,1.9,0.3,3c0,2.1-0.4,3.9-1.2,5.4c-0.8,1.5-1.9,2.8-3.5,3.8c-1.5,1-3.4,1.4-5.5,1.9c-2.2,0.5-4.6,0.4-7.4,0.4h-7.6
		c-4.7,0-9-3-9-7.7v-27.7c0-2.1,1-4,2-5.4v-11.7c0-0.8,0.7-1.5,1.5-1.5s1.5,0.7,1.5,1.5v9.4c1-0.3,2-0.5,2-0.6v-4.8
		c0-0.8,0.7-1.5,1.5-1.5s1.5,0.7,1.5,1.5v4.5h8.3c3.2,0,5.7,0.5,7.7,1.3v-2.8c0-0.8,0.7-1.5,1.5-1.5s1.5,0.7,1.5,1.5v4.1
		c1,0.3,0.9,0.6,1.3,0.9c0.2,0.2,0.7,0.4,0.7,0.6v-6.5c0-0.8,0.7-1.5,1.5-1.5s1.5,0.7,1.5,1.5v11.5C17.2-8.9,17-7.4,17-5.8z
		 M-6.8,16.8h2v-3.5c0-0.6,0.4-1,1-1s1,0.4,1,1v3.5h1.5c2.4,0,4.2-0.2,5.2-1s1.6-2.1,1.6-3.9c0-1.6-0.5-2.9-1.5-3.7
		c-1-0.8-2.7-1.3-5-1.3h-5.9V16.8z M6.2-7.7C6-8.3,5.6-8.8,5.2-9.3s-1.1-1-1.9-1.3c-0.8-0.3-1.7-0.6-2.8-0.6h-7.3v11h7v-4.5
		c0-0.8,0.7-1.5,1.5-1.5s1.5,0.7,1.5,1.5v4.1c1-0.3,1.4-0.6,1.8-1c0.4-0.5,0.9-1.1,1.1-1.8c0.2-0.7,0.4-1.5,0.4-2.3
		C6.5-6.4,6.4-7.1,6.2-7.7z"/>
</symbol>
<use xlink:href="#bblogo"  width="79.8" height="71.9" x="-39.9" y="-36" transform="matrix(1 0 0 -1 39.9108 35.9714)" overflow="visible"/>
</svg>
