<?xml version="1.0" encoding="utf-8"?>
<!-- Generator: Adobe Illustrator 18.1.0, SVG Export Plug-In . SVG Version: 6.00 Build 0)  -->
<svg version="1.1" id="Layer_1" xmlns="http://www.w3.org/2000/svg" xmlns:xlink="http://www.w3.org/1999/xlink" x="0px" y="0px"
	 viewBox="0 0 105 105.1" enable-background="new 0 0 105 105.1" xml:space="preserve">
<g>
	<path fill="#9B70FD" d="M101.4,31.7l-5.9,0l0,4l7,0l0,2.5l-10.1,0l0-15h10.1l0,2.5l-7,0l0,3.6h5.9L101.4,31.7z"/>
</g>
<path fill="none" stroke="#9B70FD" stroke-width="3" stroke-miterlimit="10" d="M101,52.4c0,26.8-21.7,48.5-48.5,48.5S4,79.2,4,52.4
	S25.7,3.9,52.5,3.9c11.1,0,21.3,3.7,29.4,9.9"/>
<g>
	<g>
		<defs>
			<path id="SVGID_1_" d="M40.3,52.4c-3.5-0.5-3.4-2.8-4.6-3.7c-2.2-1.7-5-0.9-7.2,0.1c0,0,3-0.4,4.5,0.5c-3.4-0.7-6.5,3.1-6.5,3.1
				s3.4-2,6.1-1.5C34.4,51.3,36.3,54.3,40.3,52.4z"/>
		</defs>
		<use xlink:href="#SVGID_1_"  overflow="visible" fill-rule="evenodd" clip-rule="evenodd" fill="#9B70FD"/>
		<clipPath id="SVGID_2_">
			<use xlink:href="#SVGID_1_"  overflow="visible"/>
		</clipPath>
	</g>
	<g>
		<defs>
			<path id="SVGID_3_" d="M73.4,46.7c-3.6,6.7-11.3,4.7-13,4.8c-1.4,0-1.9,0.5-2.6,0.6c-1.5,0.1-2.4-1.1-2.4-1.1s1.2,0.8,2.8,0
				c1-0.4,1.7-1.1,3-0.9c0,0-0.3-0.3-0.9-0.3c-3,0-2.8-0.7-4-2.1c-1.2-1.4-3.9-0.3-3.9-0.3c3.9-3.3,6,1.7,7.9-0.1
				c1.3-1.2-3-1.9-3-1.9c0.6-0.2,3-1.3,5.2,1c-0.3-3.5-2.4-2.8-4.2-3.5c-1.8-0.7-0.8-2-2.5-3.5c-1.7-1.5-4.2-0.6-4.2-0.6
				c6.2-2.3,6.5,1.3,8.8,1.7c4.7,0.7,8.2-2.6,12-0.3C74.1,41.2,75.3,43.2,73.4,46.7z M73.3,34.1H55.4c-1.1-0.3-2-0.6-2.4-1.1
				c-1.3-1.5-1.3-2.1-2.1-2.9c-1.5-1.4-4.5-0.9-4.5-0.9s2.5,0.2,3.2,2.4c0.4,1.3,0.2,2.6,1.9,3.5c0,0-0.8,0.1-1.5-0.4
				c-3.4-2.5-4.2-1.6-7.9-1.2c-3.6,0.4-4.8-3-4.8-3c-0.7,6.7,9.4,3.3,8.7,6.9c-0.4,2.3-6.4-0.6-6.4-0.6c0.3,0.8,1.3,3.9,7.5,3.4
				c-5.9,3.4-7,0.8-10.2,0c-3.2-0.8-4.1,1.4-8.2,1.5c-4.1,0.1-5.6-3-5.6-3c3.3,7.7,9.3,4.2,12.5,5.8c6.4,3.2,5.2,9.7,13,10.5
				c0.5,0.1,1,0.1,1.5,0.1l-1.4,3.5c-0.1-0.1-0.2-0.2-0.3-0.3c-0.6-1-0.6-1.5-0.9-2c-0.7-1-2.4-0.4-2.4-0.4s1.4,0,1.6,1.5
				c0.1,0.9-0.1,1.9,0.8,2.5c0,0-0.5,0.2-0.8-0.2c-1.7-1.6-2.2-0.9-4.2-0.3c-2,0.6-2.4-1.9-2.4-1.9c-0.8,5.1,4.9,1.8,4.3,4.5
				c-0.4,1.8-3.4,0-3.4,0c0.1,0.6,0.4,2.8,3.8,2c-3.5,3-3.9,1.1-5.6,0.7c-1.7-0.4-2.3,1.3-4.6,1.7c-2.3,0.4-2.8-1.8-2.8-1.8
				c1.3,5.5,4.8,2.4,6.5,3.4c3.3,1.9-1.1,5.7,4.5,5.8c0.4,0,0.8,0,1.3,0h6.1l5.5-13.8H63c7.5,0,14.9-5.4,18-13.1
				C84,39.3,80.8,34.1,73.3,34.1z"/>
		</defs>
		<use xlink:href="#SVGID_3_"  overflow="visible" fill-rule="evenodd" clip-rule="evenodd" fill="#9B70FD"/>
		<clipPath id="SVGID_4_">
			<use xlink:href="#SVGID_3_"  overflow="visible"/>
		</clipPath>
	</g>
</g>
</svg>
